<mxfile host="app.diagrams.net" modified="2020-06-12T03:09:54.532Z" agent="5.0 (Windows NT 10.0; Win64; x64) AppleWebKit/537.36 (KHTML, like Gecko) Chrome/81.0.4044.92 Safari/537.36" etag="trbBHA9yPz5IY4pTm8-X" version="13.2.3" type="github">
  <diagram id="wgbksqBaU25theoSpPje" name="Page-1">
    <mxGraphModel dx="1422" dy="713" grid="1" gridSize="10" guides="1" tooltips="1" connect="1" arrows="1" fold="1" page="1" pageScale="1" pageWidth="3300" pageHeight="4681" math="0" shadow="0">
      <root>
        <mxCell id="0" />
        <mxCell id="1" parent="0" />
        <mxCell id="q7qu0OWh7GDWfmp5W00Q-64" value="" style="shape=ext;double=1;rounded=1;whiteSpace=wrap;html=1;strokeWidth=2;fontFamily=Times New Roman;" parent="1" vertex="1">
          <mxGeometry x="370" y="460" width="830" height="620" as="geometry" />
        </mxCell>
        <mxCell id="q7qu0OWh7GDWfmp5W00Q-46" style="edgeStyle=orthogonalEdgeStyle;rounded=0;orthogonalLoop=1;jettySize=auto;html=1;exitX=1;exitY=0.5;exitDx=0;exitDy=0;entryX=0;entryY=0.5;entryDx=0;entryDy=0;endArrow=none;endFill=0;strokeWidth=2;strokeColor=#000000;fontFamily=Times New Roman;" parent="1" source="q7qu0OWh7GDWfmp5W00Q-6" edge="1">
          <mxGeometry relative="1" as="geometry">
            <mxPoint x="560.0000000000819" y="529.41" as="sourcePoint" />
            <mxPoint x="795" y="529.41" as="targetPoint" />
          </mxGeometry>
        </mxCell>
        <mxCell id="q7qu0OWh7GDWfmp5W00Q-47" style="edgeStyle=orthogonalEdgeStyle;rounded=0;orthogonalLoop=1;jettySize=auto;html=1;exitX=0;exitY=0.5;exitDx=0;exitDy=0;endArrow=none;endFill=0;strokeWidth=2;strokeColor=#000000;fontFamily=Times New Roman;" parent="1" source="q7qu0OWh7GDWfmp5W00Q-6" edge="1">
          <mxGeometry relative="1" as="geometry">
            <mxPoint x="310" y="530" as="targetPoint" />
          </mxGeometry>
        </mxCell>
        <mxCell id="q7qu0OWh7GDWfmp5W00Q-6" value="&lt;span style=&quot;font-size: 28px&quot;&gt;✖&lt;/span&gt;" style="ellipse;whiteSpace=wrap;html=1;aspect=fixed;strokeWidth=2;fillColor=#f8cecc;strokeColor=#000000;fontFamily=Times New Roman;" parent="1" vertex="1">
          <mxGeometry x="470" y="490" width="80" height="80" as="geometry" />
        </mxCell>
        <mxCell id="q7qu0OWh7GDWfmp5W00Q-45" style="edgeStyle=orthogonalEdgeStyle;rounded=0;orthogonalLoop=1;jettySize=auto;html=1;exitX=1;exitY=0.5;exitDx=0;exitDy=0;endArrow=none;endFill=0;entryX=0.5;entryY=0;entryDx=0;entryDy=0;strokeWidth=2;strokeColor=#000000;fontFamily=Times New Roman;" parent="1" source="q7qu0OWh7GDWfmp5W00Q-7" target="q7qu0OWh7GDWfmp5W00Q-24" edge="1">
          <mxGeometry relative="1" as="geometry">
            <mxPoint x="1509.9999999999995" y="529.8823529411766" as="targetPoint" />
          </mxGeometry>
        </mxCell>
        <mxCell id="q7qu0OWh7GDWfmp5W00Q-62" style="edgeStyle=orthogonalEdgeStyle;rounded=0;orthogonalLoop=1;jettySize=auto;html=1;exitX=1;exitY=0.5;exitDx=0;exitDy=0;endArrow=classic;endFill=1;strokeWidth=2;strokeColor=#000000;fontFamily=Times New Roman;" parent="1" source="q7qu0OWh7GDWfmp5W00Q-7" edge="1">
          <mxGeometry relative="1" as="geometry">
            <mxPoint x="1260" y="530" as="targetPoint" />
          </mxGeometry>
        </mxCell>
        <mxCell id="q7qu0OWh7GDWfmp5W00Q-7" value="&lt;font style=&quot;font-size: 28px&quot;&gt;+&lt;/font&gt;" style="ellipse;whiteSpace=wrap;html=1;aspect=fixed;strokeWidth=2;fillColor=#f8cecc;strokeColor=#000000;fontFamily=Times New Roman;" parent="1" vertex="1">
          <mxGeometry x="775" y="490" width="80" height="80" as="geometry" />
        </mxCell>
        <mxCell id="q7qu0OWh7GDWfmp5W00Q-41" style="edgeStyle=orthogonalEdgeStyle;rounded=0;orthogonalLoop=1;jettySize=auto;html=1;exitX=0.5;exitY=0;exitDx=0;exitDy=0;entryX=0.5;entryY=1;entryDx=0;entryDy=0;strokeWidth=2;strokeColor=#000000;fontFamily=Times New Roman;" parent="1" source="q7qu0OWh7GDWfmp5W00Q-8" target="q7qu0OWh7GDWfmp5W00Q-7" edge="1">
          <mxGeometry relative="1" as="geometry" />
        </mxCell>
        <mxCell id="q7qu0OWh7GDWfmp5W00Q-8" value="&lt;span style=&quot;font-size: 28px&quot;&gt;✖&lt;/span&gt;" style="ellipse;whiteSpace=wrap;html=1;aspect=fixed;strokeWidth=2;fillColor=#f8cecc;strokeColor=#000000;fontFamily=Times New Roman;" parent="1" vertex="1">
          <mxGeometry x="775" y="640" width="80" height="80" as="geometry" />
        </mxCell>
        <mxCell id="q7qu0OWh7GDWfmp5W00Q-48" style="edgeStyle=orthogonalEdgeStyle;rounded=0;orthogonalLoop=1;jettySize=auto;html=1;exitX=0.5;exitY=1;exitDx=0;exitDy=0;endArrow=classic;endFill=1;strokeWidth=2;strokeColor=#000000;fontFamily=Times New Roman;" parent="1" source="q7qu0OWh7GDWfmp5W00Q-9" edge="1">
          <mxGeometry relative="1" as="geometry">
            <mxPoint x="1260" y="1010" as="targetPoint" />
            <Array as="points">
              <mxPoint x="1080" y="1010" />
            </Array>
          </mxGeometry>
        </mxCell>
        <mxCell id="q7qu0OWh7GDWfmp5W00Q-9" value="&lt;span style=&quot;font-size: 28px&quot;&gt;✖&lt;/span&gt;" style="ellipse;whiteSpace=wrap;html=1;aspect=fixed;strokeWidth=2;fillColor=#f8cecc;strokeColor=#000000;fontFamily=Times New Roman;" parent="1" vertex="1">
          <mxGeometry x="1040" y="640" width="80" height="80" as="geometry" />
        </mxCell>
        <mxCell id="q7qu0OWh7GDWfmp5W00Q-28" style="edgeStyle=orthogonalEdgeStyle;rounded=0;orthogonalLoop=1;jettySize=auto;html=1;exitX=0.5;exitY=0;exitDx=0;exitDy=0;entryX=0.5;entryY=1;entryDx=0;entryDy=0;strokeWidth=2;strokeColor=#000000;fontFamily=Times New Roman;" parent="1" source="q7qu0OWh7GDWfmp5W00Q-10" target="q7qu0OWh7GDWfmp5W00Q-11" edge="1">
          <mxGeometry relative="1" as="geometry" />
        </mxCell>
        <mxCell id="q7qu0OWh7GDWfmp5W00Q-10" value="&lt;font style=&quot;font-size: 28px&quot;&gt;W&lt;sub&gt;f&lt;/sub&gt;&lt;/font&gt;" style="rounded=0;whiteSpace=wrap;html=1;strokeWidth=2;fillColor=#f5f5f5;strokeColor=#000000;fontColor=#333333;fontFamily=Times New Roman;" parent="1" vertex="1">
          <mxGeometry x="445" y="870" width="130" height="60" as="geometry" />
        </mxCell>
        <mxCell id="q7qu0OWh7GDWfmp5W00Q-27" style="edgeStyle=orthogonalEdgeStyle;rounded=0;orthogonalLoop=1;jettySize=auto;html=1;exitX=0.5;exitY=0;exitDx=0;exitDy=0;strokeWidth=2;strokeColor=#000000;fontFamily=Times New Roman;" parent="1" source="q7qu0OWh7GDWfmp5W00Q-11" target="q7qu0OWh7GDWfmp5W00Q-6" edge="1">
          <mxGeometry relative="1" as="geometry" />
        </mxCell>
        <mxCell id="q7qu0OWh7GDWfmp5W00Q-11" value="&lt;font style=&quot;font-size: 28px&quot;&gt;σ&lt;/font&gt;" style="rounded=0;whiteSpace=wrap;html=1;strokeWidth=2;strokeColor=#000000;fontFamily=Times New Roman;" parent="1" vertex="1">
          <mxGeometry x="470" y="790" width="80" height="60" as="geometry" />
        </mxCell>
        <mxCell id="q7qu0OWh7GDWfmp5W00Q-36" style="edgeStyle=orthogonalEdgeStyle;rounded=0;orthogonalLoop=1;jettySize=auto;html=1;exitX=0.5;exitY=0;exitDx=0;exitDy=0;entryX=0.5;entryY=1;entryDx=0;entryDy=0;strokeWidth=2;strokeColor=#000000;fontFamily=Times New Roman;" parent="1" source="q7qu0OWh7GDWfmp5W00Q-16" target="q7qu0OWh7GDWfmp5W00Q-17" edge="1">
          <mxGeometry relative="1" as="geometry" />
        </mxCell>
        <mxCell id="q7qu0OWh7GDWfmp5W00Q-16" value="&lt;font style=&quot;font-size: 28px&quot;&gt;W&lt;sub&gt;i&lt;/sub&gt;&lt;/font&gt;" style="rounded=0;whiteSpace=wrap;html=1;strokeWidth=2;fillColor=#f5f5f5;strokeColor=#000000;fontColor=#333333;fontFamily=Times New Roman;" parent="1" vertex="1">
          <mxGeometry x="600" y="870" width="130" height="60" as="geometry" />
        </mxCell>
        <mxCell id="q7qu0OWh7GDWfmp5W00Q-39" style="edgeStyle=orthogonalEdgeStyle;rounded=0;orthogonalLoop=1;jettySize=auto;html=1;exitX=0.5;exitY=0;exitDx=0;exitDy=0;entryX=0;entryY=0.5;entryDx=0;entryDy=0;strokeWidth=2;strokeColor=#000000;fontFamily=Times New Roman;" parent="1" source="q7qu0OWh7GDWfmp5W00Q-17" target="q7qu0OWh7GDWfmp5W00Q-8" edge="1">
          <mxGeometry relative="1" as="geometry">
            <mxPoint x="785" y="680" as="targetPoint" />
          </mxGeometry>
        </mxCell>
        <mxCell id="q7qu0OWh7GDWfmp5W00Q-17" value="&lt;span style=&quot;font-size: 28px&quot;&gt;σ&lt;/span&gt;" style="rounded=0;whiteSpace=wrap;html=1;strokeWidth=2;fillColor=#dae8fc;strokeColor=#000000;fontFamily=Times New Roman;" parent="1" vertex="1">
          <mxGeometry x="625" y="790" width="80" height="60" as="geometry" />
        </mxCell>
        <mxCell id="q7qu0OWh7GDWfmp5W00Q-37" style="edgeStyle=orthogonalEdgeStyle;rounded=0;orthogonalLoop=1;jettySize=auto;html=1;exitX=0.5;exitY=0;exitDx=0;exitDy=0;entryX=0.5;entryY=1;entryDx=0;entryDy=0;strokeWidth=2;strokeColor=#000000;fontFamily=Times New Roman;" parent="1" source="q7qu0OWh7GDWfmp5W00Q-20" target="q7qu0OWh7GDWfmp5W00Q-21" edge="1">
          <mxGeometry relative="1" as="geometry" />
        </mxCell>
        <mxCell id="q7qu0OWh7GDWfmp5W00Q-20" value="&lt;font style=&quot;font-size: 29px&quot;&gt;W&lt;/font&gt;&lt;font style=&quot;font-size: 24.1667px&quot;&gt;&lt;sub style=&quot;font-size: 23.3333px&quot;&gt;c&lt;/sub&gt;&lt;/font&gt;" style="rounded=0;whiteSpace=wrap;html=1;strokeWidth=2;fillColor=#f5f5f5;strokeColor=#000000;fontColor=#333333;fontFamily=Times New Roman;" parent="1" vertex="1">
          <mxGeometry x="750" y="870" width="130" height="60" as="geometry" />
        </mxCell>
        <mxCell id="q7qu0OWh7GDWfmp5W00Q-40" style="edgeStyle=orthogonalEdgeStyle;rounded=0;orthogonalLoop=1;jettySize=auto;html=1;exitX=0.5;exitY=0;exitDx=0;exitDy=0;entryX=0.5;entryY=1;entryDx=0;entryDy=0;strokeWidth=2;strokeColor=#000000;fontFamily=Times New Roman;" parent="1" source="q7qu0OWh7GDWfmp5W00Q-21" target="q7qu0OWh7GDWfmp5W00Q-8" edge="1">
          <mxGeometry relative="1" as="geometry" />
        </mxCell>
        <mxCell id="q7qu0OWh7GDWfmp5W00Q-21" value="&lt;span style=&quot;font-size: 28px&quot;&gt;tanh&lt;/span&gt;" style="rounded=0;whiteSpace=wrap;html=1;strokeWidth=2;fillColor=#dae8fc;strokeColor=#000000;fontFamily=Times New Roman;" parent="1" vertex="1">
          <mxGeometry x="775" y="790" width="80" height="60" as="geometry" />
        </mxCell>
        <mxCell id="q7qu0OWh7GDWfmp5W00Q-38" style="edgeStyle=orthogonalEdgeStyle;rounded=0;orthogonalLoop=1;jettySize=auto;html=1;exitX=0.5;exitY=0;exitDx=0;exitDy=0;entryX=0.5;entryY=1;entryDx=0;entryDy=0;strokeWidth=2;strokeColor=#000000;fontFamily=Times New Roman;" parent="1" source="q7qu0OWh7GDWfmp5W00Q-22" target="q7qu0OWh7GDWfmp5W00Q-23" edge="1">
          <mxGeometry relative="1" as="geometry" />
        </mxCell>
        <mxCell id="q7qu0OWh7GDWfmp5W00Q-22" value="&lt;span style=&quot;font-size: 28px&quot;&gt;W&lt;/span&gt;&lt;font style=&quot;font-size: 28px&quot;&gt;&lt;sub&gt;o&lt;/sub&gt;&lt;/font&gt;" style="rounded=0;whiteSpace=wrap;html=1;strokeWidth=2;fillColor=#f5f5f5;strokeColor=#000000;fontColor=#333333;fontFamily=Times New Roman;" parent="1" vertex="1">
          <mxGeometry x="910" y="870" width="130" height="60" as="geometry" />
        </mxCell>
        <mxCell id="q7qu0OWh7GDWfmp5W00Q-42" style="edgeStyle=orthogonalEdgeStyle;rounded=0;orthogonalLoop=1;jettySize=auto;html=1;exitX=0.5;exitY=0;exitDx=0;exitDy=0;entryX=0;entryY=0.5;entryDx=0;entryDy=0;strokeWidth=2;strokeColor=#000000;fontFamily=Times New Roman;" parent="1" source="q7qu0OWh7GDWfmp5W00Q-23" target="q7qu0OWh7GDWfmp5W00Q-9" edge="1">
          <mxGeometry relative="1" as="geometry" />
        </mxCell>
        <mxCell id="q7qu0OWh7GDWfmp5W00Q-23" value="&lt;span style=&quot;font-size: 28px&quot;&gt;σ&lt;/span&gt;" style="rounded=0;whiteSpace=wrap;html=1;strokeWidth=2;fillColor=#dae8fc;strokeColor=#000000;fontFamily=Times New Roman;" parent="1" vertex="1">
          <mxGeometry x="935" y="790" width="80" height="60" as="geometry" />
        </mxCell>
        <mxCell id="q7qu0OWh7GDWfmp5W00Q-25" style="edgeStyle=orthogonalEdgeStyle;rounded=0;orthogonalLoop=1;jettySize=auto;html=1;exitX=0.5;exitY=1;exitDx=0;exitDy=0;entryX=0.5;entryY=0;entryDx=0;entryDy=0;strokeWidth=2;strokeColor=#000000;fontFamily=Times New Roman;" parent="1" source="q7qu0OWh7GDWfmp5W00Q-24" target="q7qu0OWh7GDWfmp5W00Q-9" edge="1">
          <mxGeometry relative="1" as="geometry" />
        </mxCell>
        <mxCell id="q7qu0OWh7GDWfmp5W00Q-24" value="&lt;span style=&quot;font-size: 28px&quot;&gt;tanh&lt;/span&gt;" style="rounded=0;whiteSpace=wrap;html=1;strokeWidth=2;strokeColor=#000000;fontFamily=Times New Roman;" parent="1" vertex="1">
          <mxGeometry x="1040" y="560" width="80" height="60" as="geometry" />
        </mxCell>
        <mxCell id="q7qu0OWh7GDWfmp5W00Q-29" style="edgeStyle=orthogonalEdgeStyle;rounded=0;orthogonalLoop=1;jettySize=auto;html=1;exitX=0.5;exitY=0;exitDx=0;exitDy=0;entryX=0.5;entryY=1;entryDx=0;entryDy=0;strokeWidth=2;strokeColor=#000000;fontFamily=Times New Roman;" parent="1" source="q7qu0OWh7GDWfmp5W00Q-26" target="q7qu0OWh7GDWfmp5W00Q-10" edge="1">
          <mxGeometry relative="1" as="geometry" />
        </mxCell>
        <mxCell id="q7qu0OWh7GDWfmp5W00Q-33" style="edgeStyle=orthogonalEdgeStyle;rounded=0;orthogonalLoop=1;jettySize=auto;html=1;exitX=0.5;exitY=0;exitDx=0;exitDy=0;entryX=0.5;entryY=1;entryDx=0;entryDy=0;strokeWidth=2;strokeColor=#000000;fontFamily=Times New Roman;" parent="1" source="q7qu0OWh7GDWfmp5W00Q-26" target="q7qu0OWh7GDWfmp5W00Q-16" edge="1">
          <mxGeometry relative="1" as="geometry">
            <Array as="points">
              <mxPoint x="510" y="960" />
              <mxPoint x="665" y="960" />
            </Array>
          </mxGeometry>
        </mxCell>
        <mxCell id="q7qu0OWh7GDWfmp5W00Q-34" style="edgeStyle=orthogonalEdgeStyle;rounded=0;orthogonalLoop=1;jettySize=auto;html=1;exitX=0.5;exitY=0;exitDx=0;exitDy=0;entryX=0.5;entryY=1;entryDx=0;entryDy=0;strokeWidth=2;strokeColor=#000000;fontFamily=Times New Roman;" parent="1" source="q7qu0OWh7GDWfmp5W00Q-26" target="q7qu0OWh7GDWfmp5W00Q-20" edge="1">
          <mxGeometry relative="1" as="geometry">
            <Array as="points">
              <mxPoint x="510" y="960" />
              <mxPoint x="815" y="960" />
            </Array>
          </mxGeometry>
        </mxCell>
        <mxCell id="q7qu0OWh7GDWfmp5W00Q-35" style="edgeStyle=orthogonalEdgeStyle;rounded=0;orthogonalLoop=1;jettySize=auto;html=1;exitX=0.5;exitY=0;exitDx=0;exitDy=0;entryX=0.5;entryY=1;entryDx=0;entryDy=0;strokeWidth=2;strokeColor=#000000;fontFamily=Times New Roman;" parent="1" source="q7qu0OWh7GDWfmp5W00Q-26" target="q7qu0OWh7GDWfmp5W00Q-22" edge="1">
          <mxGeometry relative="1" as="geometry">
            <Array as="points">
              <mxPoint x="510" y="960" />
              <mxPoint x="975" y="960" />
            </Array>
          </mxGeometry>
        </mxCell>
        <mxCell id="q7qu0OWh7GDWfmp5W00Q-26" value="&lt;font style=&quot;font-size: 28px&quot;&gt;concatenated&lt;/font&gt;" style="rounded=0;whiteSpace=wrap;html=1;strokeWidth=2;fillColor=#e1d5e7;strokeColor=#000000;fontFamily=Times New Roman;" parent="1" vertex="1">
          <mxGeometry x="420" y="980" width="180" height="60" as="geometry" />
        </mxCell>
        <mxCell id="q7qu0OWh7GDWfmp5W00Q-43" value="" style="endArrow=classic;html=1;entryX=0.5;entryY=1;entryDx=0;entryDy=0;strokeWidth=2;strokeColor=#000000;fontFamily=Times New Roman;" parent="1" target="q7qu0OWh7GDWfmp5W00Q-26" edge="1">
          <mxGeometry width="50" height="50" relative="1" as="geometry">
            <mxPoint x="510" y="1150" as="sourcePoint" />
            <mxPoint x="520" y="1120" as="targetPoint" />
          </mxGeometry>
        </mxCell>
        <mxCell id="q7qu0OWh7GDWfmp5W00Q-44" value="" style="endArrow=classic;html=1;entryX=0;entryY=0.5;entryDx=0;entryDy=0;strokeWidth=2;strokeColor=#000000;fontFamily=Times New Roman;" parent="1" target="q7qu0OWh7GDWfmp5W00Q-26" edge="1">
          <mxGeometry width="50" height="50" relative="1" as="geometry">
            <mxPoint x="310" y="1010" as="sourcePoint" />
            <mxPoint x="280" y="970" as="targetPoint" />
          </mxGeometry>
        </mxCell>
        <mxCell id="q7qu0OWh7GDWfmp5W00Q-53" style="edgeStyle=orthogonalEdgeStyle;rounded=0;orthogonalLoop=1;jettySize=auto;html=1;endArrow=classic;endFill=1;strokeWidth=2;fontFamily=Times New Roman;" parent="1" edge="1">
          <mxGeometry relative="1" as="geometry">
            <mxPoint x="1140.06" y="400" as="targetPoint" />
            <mxPoint x="1140.06" y="1010" as="sourcePoint" />
            <Array as="points">
              <mxPoint x="1140.06" y="710" />
              <mxPoint x="1140.06" y="710" />
            </Array>
          </mxGeometry>
        </mxCell>
        <mxCell id="q7qu0OWh7GDWfmp5W00Q-66" value="&lt;span style=&quot;color: rgb(0, 0, 0); font-size: 28px; font-style: normal; font-weight: 400; letter-spacing: normal; text-align: center; text-indent: 0px; text-transform: none; word-spacing: 0px; background-color: rgb(248, 249, 250); float: none; display: inline;&quot;&gt;C&#39;&lt;/span&gt;&lt;span style=&quot;color: rgb(0, 0, 0); font-style: normal; font-weight: 400; letter-spacing: normal; text-align: center; text-indent: 0px; text-transform: none; word-spacing: 0px; background-color: rgb(248, 249, 250); float: none; display: inline;&quot;&gt;&lt;sub&gt;&lt;font style=&quot;font-size: 23.3333px&quot;&gt;t&lt;/font&gt;&lt;/sub&gt;&lt;/span&gt;" style="text;whiteSpace=wrap;html=1;strokeWidth=2;strokeColor=none;fontFamily=Times New Roman;" parent="1" vertex="1">
          <mxGeometry x="830" y="740" width="80" height="30" as="geometry" />
        </mxCell>
        <mxCell id="q7qu0OWh7GDWfmp5W00Q-67" value="&lt;span style=&quot;color: rgb(0, 0, 0); font-size: 28px; font-style: normal; font-weight: 400; letter-spacing: normal; text-align: center; text-indent: 0px; text-transform: none; word-spacing: 0px; background-color: rgb(248, 249, 250); float: none; display: inline;&quot;&gt;i&lt;/span&gt;&lt;span style=&quot;color: rgb(0, 0, 0); font-style: normal; font-weight: 400; letter-spacing: normal; text-align: center; text-indent: 0px; text-transform: none; word-spacing: 0px; background-color: rgb(248, 249, 250); float: none; display: inline;&quot;&gt;&lt;sub&gt;&lt;font style=&quot;font-size: 23.3333px&quot;&gt;t&lt;/font&gt;&lt;/sub&gt;&lt;/span&gt;" style="text;whiteSpace=wrap;html=1;strokeWidth=2;strokeColor=none;fontFamily=Times New Roman;" parent="1" vertex="1">
          <mxGeometry x="620" y="740" width="20" height="30" as="geometry" />
        </mxCell>
        <mxCell id="q7qu0OWh7GDWfmp5W00Q-70" value="&lt;span style=&quot;color: rgb(0, 0, 0); font-style: normal; font-weight: 400; letter-spacing: normal; text-align: center; text-indent: 0px; text-transform: none; word-spacing: 0px; background-color: rgb(248, 249, 250); float: none; display: inline;&quot;&gt;&lt;font style=&quot;vertical-align: sub ; font-size: 28px&quot;&gt;f&lt;/font&gt;&lt;font style=&quot;font-size: 23.3333px&quot;&gt;&lt;sub&gt;t&lt;/sub&gt;&lt;/font&gt;&lt;/span&gt;" style="text;whiteSpace=wrap;html=1;strokeWidth=2;strokeColor=none;fontFamily=Times New Roman;" parent="1" vertex="1">
          <mxGeometry x="460" y="740" width="35" height="30" as="geometry" />
        </mxCell>
        <mxCell id="q7qu0OWh7GDWfmp5W00Q-71" value="&lt;span style=&quot;color: rgb(0, 0, 0); font-size: 28px; font-style: normal; font-weight: 400; letter-spacing: normal; text-align: center; text-indent: 0px; text-transform: none; word-spacing: 0px; background-color: rgb(248, 249, 250); float: none; display: inline;&quot;&gt;O&lt;/span&gt;&lt;span style=&quot;color: rgb(0, 0, 0); font-style: normal; font-weight: 400; letter-spacing: normal; text-align: center; text-indent: 0px; text-transform: none; word-spacing: 0px; background-color: rgb(248, 249, 250); float: none; display: inline;&quot;&gt;&lt;sub&gt;&lt;font style=&quot;font-size: 23.3333px&quot;&gt;t&lt;/font&gt;&lt;/sub&gt;&lt;/span&gt;" style="text;whiteSpace=wrap;html=1;strokeWidth=2;strokeColor=none;fontFamily=Times New Roman;" parent="1" vertex="1">
          <mxGeometry x="930" y="740" width="45" height="30" as="geometry" />
        </mxCell>
        <mxCell id="q7qu0OWh7GDWfmp5W00Q-72" value="&lt;span style=&quot;color: rgb(0, 0, 0); font-size: 28px; font-style: normal; font-weight: 400; letter-spacing: normal; text-align: center; text-indent: 0px; text-transform: none; word-spacing: 0px; background-color: rgb(248, 249, 250); float: none; display: inline;&quot;&gt;C&lt;/span&gt;&lt;span style=&quot;color: rgb(0, 0, 0); font-style: normal; font-weight: 400; letter-spacing: normal; text-align: center; text-indent: 0px; text-transform: none; word-spacing: 0px; background-color: rgb(248, 249, 250); float: none; display: inline;&quot;&gt;&lt;sub&gt;&lt;font style=&quot;font-size: 23.3333px&quot;&gt;t&lt;/font&gt;&lt;/sub&gt;&lt;/span&gt;" style="text;whiteSpace=wrap;html=1;strokeWidth=2;strokeColor=none;fontFamily=Times New Roman;" parent="1" vertex="1">
          <mxGeometry x="850" y="470" width="80" height="30" as="geometry" />
        </mxCell>
        <mxCell id="q7qu0OWh7GDWfmp5W00Q-73" value="&lt;span style=&quot;color: rgb(0, 0, 0); font-size: 28px; font-style: normal; font-weight: 400; letter-spacing: normal; text-align: center; text-indent: 0px; text-transform: none; word-spacing: 0px; background-color: rgb(248, 249, 250); float: none; display: inline;&quot;&gt;C&lt;/span&gt;&lt;span style=&quot;color: rgb(0, 0, 0); font-style: normal; font-weight: 400; letter-spacing: normal; text-align: center; text-indent: 0px; text-transform: none; word-spacing: 0px; background-color: rgb(248, 249, 250); float: none; display: inline;&quot;&gt;&lt;sub&gt;&lt;font style=&quot;font-size: 23.3333px&quot;&gt;t-1&lt;/font&gt;&lt;/sub&gt;&lt;/span&gt;" style="text;whiteSpace=wrap;html=1;strokeWidth=2;strokeColor=none;fontFamily=Times New Roman;" parent="1" vertex="1">
          <mxGeometry x="310" y="490" width="50" height="40" as="geometry" />
        </mxCell>
        <mxCell id="q7qu0OWh7GDWfmp5W00Q-75" value="&lt;span style=&quot;color: rgb(0, 0, 0); font-size: 28px; font-style: normal; font-weight: 400; letter-spacing: normal; text-align: center; text-indent: 0px; text-transform: none; word-spacing: 0px; background-color: rgb(248, 249, 250); float: none; display: inline;&quot;&gt;h&lt;/span&gt;&lt;span style=&quot;color: rgb(0, 0, 0); font-style: normal; font-weight: 400; letter-spacing: normal; text-align: center; text-indent: 0px; text-transform: none; word-spacing: 0px; background-color: rgb(248, 249, 250); float: none; display: inline;&quot;&gt;&lt;sub&gt;&lt;font style=&quot;font-size: 23.3333px&quot;&gt;t-1&lt;/font&gt;&lt;/sub&gt;&lt;/span&gt;" style="text;whiteSpace=wrap;html=1;strokeWidth=2;strokeColor=none;fontFamily=Times New Roman;" parent="1" vertex="1">
          <mxGeometry x="300" y="970" width="80" height="30" as="geometry" />
        </mxCell>
        <mxCell id="q7qu0OWh7GDWfmp5W00Q-76" value="&lt;span style=&quot;color: rgb(0, 0, 0); font-size: 28px; font-style: normal; font-weight: 400; letter-spacing: normal; text-align: center; text-indent: 0px; text-transform: none; word-spacing: 0px; background-color: rgb(248, 249, 250); float: none; display: inline;&quot;&gt;x&lt;/span&gt;&lt;span style=&quot;color: rgb(0, 0, 0); font-style: normal; font-weight: 400; letter-spacing: normal; text-align: center; text-indent: 0px; text-transform: none; word-spacing: 0px; background-color: rgb(248, 249, 250); float: none; display: inline;&quot;&gt;&lt;sub&gt;&lt;font style=&quot;font-size: 23.3333px&quot;&gt;t&lt;/font&gt;&lt;/sub&gt;&lt;/span&gt;" style="text;whiteSpace=wrap;html=1;strokeWidth=2;strokeColor=none;fontFamily=Times New Roman;" parent="1" vertex="1">
          <mxGeometry x="470" y="1110" width="80" height="30" as="geometry" />
        </mxCell>
        <mxCell id="q7qu0OWh7GDWfmp5W00Q-79" value="&lt;span style=&quot;color: rgb(0, 0, 0); font-size: 28px; font-style: normal; font-weight: 400; letter-spacing: normal; text-align: center; text-indent: 0px; text-transform: none; word-spacing: 0px; background-color: rgb(248, 249, 250); float: none; display: inline;&quot;&gt;h&lt;/span&gt;&lt;span style=&quot;color: rgb(0, 0, 0); font-style: normal; font-weight: 400; letter-spacing: normal; text-align: center; text-indent: 0px; text-transform: none; word-spacing: 0px; background-color: rgb(248, 249, 250); float: none; display: inline;&quot;&gt;&lt;sub&gt;&lt;font style=&quot;font-size: 23.3333px&quot;&gt;t&lt;/font&gt;&lt;/sub&gt;&lt;/span&gt;" style="text;whiteSpace=wrap;html=1;strokeWidth=2;strokeColor=none;fontFamily=Times New Roman;" parent="1" vertex="1">
          <mxGeometry x="1210" y="970" width="30" height="40" as="geometry" />
        </mxCell>
        <mxCell id="q7qu0OWh7GDWfmp5W00Q-80" value="&lt;span style=&quot;font-size: 28px&quot;&gt;tanh&lt;/span&gt;" style="rounded=0;whiteSpace=wrap;html=1;strokeWidth=2;fillColor=#dae8fc;strokeColor=#000000;fontFamily=Times New Roman;" parent="1" vertex="1">
          <mxGeometry x="1040" y="560" width="80" height="60" as="geometry" />
        </mxCell>
        <mxCell id="q7qu0OWh7GDWfmp5W00Q-81" value="&lt;font style=&quot;font-size: 28px&quot;&gt;σ&lt;/font&gt;" style="rounded=0;whiteSpace=wrap;html=1;strokeWidth=2;fillColor=#dae8fc;strokeColor=#000000;fontFamily=Times New Roman;" parent="1" vertex="1">
          <mxGeometry x="470" y="790" width="80" height="60" as="geometry" />
        </mxCell>
        <mxCell id="q7qu0OWh7GDWfmp5W00Q-82" value="&lt;span style=&quot;color: rgb(0, 0, 0); font-size: 28px; font-style: normal; font-weight: 400; letter-spacing: normal; text-align: center; text-indent: 0px; text-transform: none; word-spacing: 0px; background-color: rgb(248, 249, 250); float: none; display: inline;&quot;&gt;C&lt;/span&gt;&lt;span style=&quot;color: rgb(0, 0, 0); font-style: normal; font-weight: 400; letter-spacing: normal; text-align: center; text-indent: 0px; text-transform: none; word-spacing: 0px; background-color: rgb(248, 249, 250); float: none; display: inline;&quot;&gt;&lt;sub&gt;&lt;font style=&quot;font-size: 23.3333px&quot;&gt;t&lt;/font&gt;&lt;/sub&gt;&lt;/span&gt;" style="text;whiteSpace=wrap;html=1;strokeWidth=2;strokeColor=none;fontFamily=Times New Roman;" parent="1" vertex="1">
          <mxGeometry x="1210" y="490" width="50" height="40" as="geometry" />
        </mxCell>
        <mxCell id="q7qu0OWh7GDWfmp5W00Q-83" value="&lt;span style=&quot;color: rgb(0, 0, 0); font-size: 28px; font-style: normal; font-weight: 400; letter-spacing: normal; text-align: center; text-indent: 0px; text-transform: none; word-spacing: 0px; background-color: rgb(248, 249, 250); float: none; display: inline;&quot;&gt;h&lt;/span&gt;&lt;span style=&quot;color: rgb(0, 0, 0); font-style: normal; font-weight: 400; letter-spacing: normal; text-align: center; text-indent: 0px; text-transform: none; word-spacing: 0px; background-color: rgb(248, 249, 250); float: none; display: inline;&quot;&gt;&lt;sub&gt;&lt;font style=&quot;font-size: 23.3333px&quot;&gt;t&lt;/font&gt;&lt;/sub&gt;&lt;/span&gt;" style="text;whiteSpace=wrap;html=1;strokeWidth=2;strokeColor=none;fontFamily=Times New Roman;" parent="1" vertex="1">
          <mxGeometry x="1090" y="410" width="40" height="50" as="geometry" />
        </mxCell>
      </root>
    </mxGraphModel>
  </diagram>
</mxfile>
